<svg width="120" height="120" viewBox="0 0 120 120" fill="none" xmlns="http://www.w3.org/2000/svg">
  <rect width="120" height="120" rx="24" fill="#F5F5FF"/>
  <circle cx="60" cy="60" r="40" fill="#5E60CE"/>
  <path d="M60 32C53.6348 32 47.4303 33.761 42.2217 37.0732C36.9131 40.3854 32.8253 45.0816 30.5179 50.6412C28.2106 56.2007 27.7934 62.3217 29.323 68.1383C30.8525 73.9549 34.2566 79.1537 39.0589 82.988C43.8613 86.8223 49.8396 89.0823 56.0945 89.4141C62.3494 89.7459 68.534 88.133 73.8132 84.806C79.0923 81.479 83.2287 76.6137 85.6915 70.9098C88.1542 65.2059 88.828 58.8635 87.6189 52.8C85.904 44.4553 81.1323 37.0606 74.1421 32.188C67.152 27.3154 58.4696 25.3843 50.1211 26.8633" stroke="white" stroke-width="4" stroke-linecap="round"/>
  <path d="M75 50L55 70L45 60" stroke="white" stroke-width="4" stroke-linecap="round" stroke-linejoin="round"/>
</svg> 